<svg width="107" height="32" viewBox="0 0 107 32" fill="none" xmlns="http://www.w3.org/2000/svg">
<path fill-rule="evenodd" clip-rule="evenodd" d="M7.43913 27.4739C3.94783 24.8652 1.68261 20.6957 1.68261 16C1.68261 8.09565 8.09565 1.68261 16 1.68261C22.5261 1.68261 29.6522 5.58261 31.3739 11.5565C29.4478 4.88261 23.2957 0 16 0C7.16522 0 0 7.16522 0 16C0 24.8348 7.16522 32 16 32C24.8348 32 32 24.8348 32 16V15.1565H31.1217C31.0957 15.1565 31.0565 15.1565 31.0043 15.1565C30.9 15.1565 30.7522 15.1522 30.5609 15.1435C30.1826 15.1304 29.6609 15.1043 29.0739 15.0522C27.8739 14.9478 26.5043 14.7435 25.5739 14.3696C24.0739 13.7696 23.2261 12.9783 22.2609 12.0478L22.2043 11.9957C21.2348 11.0652 20.1478 10.0174 18.2565 9.13043C16.3957 8.25652 14.3391 8.39565 12.8304 8.7087C12.0652 8.86522 11.4043 9.07391 10.9391 9.24348C10.7043 9.32609 10.5174 9.40435 10.387 9.45652C9.62609 9.77826 8.88696 10.1565 8.14348 10.5087C8.14348 10.5087 9.6087 10.9087 10.3304 11.1348C10.3565 11.1435 10.3957 11.1565 10.4522 11.1739C10.5609 11.2087 10.7174 11.2652 10.9043 11.3435C11.287 11.5 11.787 11.7304 12.2826 12.0522C13.0652 12.5522 13.713 13.187 13.9783 13.9609C12.3217 14.1783 10.7652 14.9087 9.6 15.5913C8.89565 16.0043 8.3087 16.4217 7.89565 16.7304C7.6913 16.887 7.52609 17.0174 7.41304 17.1087C7.31739 17.187 5.82174 18.5043 5.82174 18.5043C5.82174 18.5043 7.75217 18.7087 8.70435 18.9C9.33913 19.0261 10.1913 19.2348 11.087 19.5435C11.9826 19.8565 12.887 20.2652 13.6391 20.7913C14.3913 21.3174 14.9435 21.9217 15.213 22.6174C16.0043 24.6435 15.2261 26.613 13.6652 27.7217C12.1217 28.8174 9.77826 29.0783 7.43478 27.4696L7.43913 27.4739ZM12.9 29.9783C13.5304 29.7739 14.1174 29.4739 14.6478 29.1C16.7696 27.5913 17.887 24.8261 16.787 22.0087C16.3522 20.9 15.5261 20.0565 14.6087 19.413C13.687 18.7696 12.6304 18.3 11.6478 17.9565C11.0043 17.7304 10.3783 17.5565 9.83478 17.4261C10.0304 17.3 10.2348 17.1696 10.4565 17.0391C11.7522 16.2783 13.387 15.5783 14.9522 15.5783C17.313 15.5783 19.0696 16.3043 20.7478 17.0783C20.9 17.1478 21.0522 17.2217 21.2087 17.2913C22.7087 17.9957 24.2826 18.7348 26.113 18.7348C27.9435 18.7348 29.2696 18.2348 30.2217 17.713C29.3739 24.8087 23.3348 30.313 16.0087 30.313C14.9435 30.313 13.9043 30.1957 12.9087 29.9783H12.9ZM28.3957 16.6826C27.7652 16.8957 27 17.0522 26.1087 17.0522C24.6739 17.0522 23.4391 16.4783 21.8739 15.7478C21.7348 15.6826 21.5957 15.6174 21.4522 15.5522C19.8826 14.8261 18.0696 14.0565 15.7087 13.9174C15.3913 12.3565 14.2087 11.287 13.1913 10.6348C13.0783 10.5609 12.9652 10.4913 12.8522 10.4261C12.9522 10.4043 13.0565 10.3783 13.1652 10.3565C14.5304 10.0739 16.1565 10.0043 17.5348 10.6565C19.1696 11.4261 20.0957 12.313 21.0565 13.2348L21.0913 13.2652C22.0783 14.213 23.1261 15.2087 24.9478 15.9391C25.9609 16.3435 27.2739 16.5609 28.3957 16.6826Z" fill="url(#paint0_linear_97_9383)"/>
<path d="M42.3564 12.5525V3.10034H44.1651L45.7304 6.89599L47.2956 3.10034H49.1043V12.5525H47.6869V5.2873L45.7173 9.96991L43.7478 5.2873V12.5525H42.3564Z" fill="#151522"/>
<path d="M51.252 12.5525L54.2215 3.10034H56.1389L59.1085 12.5525H57.4607L56.7737 10.2699H53.5215L52.8476 12.5525H51.2563H51.252ZM53.8824 9.01339H56.4215L55.152 4.81339L53.8824 9.01339Z" fill="#151522"/>
<path d="M61.4307 12.5525V3.10034H63.0655L66.4828 9.71339L66.4568 3.10034H67.835V12.5525H66.335L62.7828 5.72208L62.8089 12.5525H61.4307Z" fill="#151522"/>
<path d="M73.2693 12.5525V4.4786H70.3389V3.10034H77.8171V4.4786H74.8867V12.5525H73.265H73.2693Z" fill="#151522"/>
<path d="M79.6045 12.5525L82.5741 3.10034H84.4915L87.461 12.5525H85.8132L85.1262 10.2699H81.8741L81.2001 12.5525H79.6088H79.6045ZM82.2349 9.01339H84.7741L83.5045 4.81339L82.2349 9.01339Z" fill="#151522"/>
<path d="M42.5303 28.7525V19.3003H44.1651L47.5824 25.9133L47.5564 19.3003H48.9346V28.7525H47.4346L43.8824 21.922L43.9085 28.7525H42.5303Z" fill="#151522"/>
<path d="M52.3042 28.7525V19.3003H58.4868V20.6786H53.9215V23.3133H56.8781V24.6612H53.9215V27.3742H58.5389V28.7525H52.2998H52.3042Z" fill="#151522"/>
<path d="M63.822 28.7525V20.6786H60.8916V19.3003H68.3699V20.6786H65.4394V28.7525H63.8177H63.822Z" fill="#151522"/>
<path d="M71.3694 28.7525L70.2607 19.3003H71.6912L72.2868 25.5394L73.4999 19.3003H74.7129L75.926 25.4829L76.5216 19.3003H77.8999L76.8042 28.7525H75.3477L74.0912 22.0829L72.8216 28.7525H71.3651H71.3694Z" fill="#151522"/>
<path d="M83.5299 28.9004C82.8647 28.9004 82.2517 28.7091 81.6951 28.3352C81.1386 27.9569 80.6908 27.4047 80.3604 26.683C80.0256 25.9569 79.8604 25.0743 79.8604 24.0308C79.8604 22.9873 80.0256 22.1004 80.3604 21.3786C80.6951 20.6526 81.1386 20.1047 81.6951 19.7265C82.2517 19.3482 82.8647 19.1613 83.5299 19.1613C84.1951 19.1613 84.8038 19.3526 85.3604 19.7265C85.9125 20.1047 86.3604 20.6569 86.6951 21.3786C87.0343 22.1047 87.1995 22.9873 87.1995 24.0308C87.1995 25.0743 87.0299 25.9613 86.6951 26.683C86.356 27.4091 85.9125 27.9569 85.3604 28.3352C84.8082 28.7134 84.1951 28.9004 83.5299 28.9004ZM83.5299 27.4439C83.9082 27.4439 84.2517 27.3178 84.5647 27.0569C84.8734 26.8004 85.1212 26.4178 85.2995 25.9091C85.4777 25.4004 85.5691 24.7743 85.5691 24.0265C85.5691 23.2786 85.4777 22.6526 85.2995 22.1482C85.1212 21.6439 84.8734 21.2613 84.5647 21.0004C84.256 20.7395 83.9082 20.6091 83.5299 20.6091C83.1517 20.6091 82.8082 20.7395 82.4951 21.0004C82.1864 21.2613 81.9386 21.6439 81.7604 22.1482C81.5821 22.6526 81.4908 23.2786 81.4908 24.0265C81.4908 24.7743 81.5821 25.4004 81.7604 25.9091C81.9386 26.4178 82.1864 26.8004 82.4951 27.0569C82.8038 27.3134 83.1517 27.4439 83.5299 27.4439Z" fill="#151522"/>
<path d="M90.0395 28.7525V19.3003H93.2525C93.883 19.3003 94.4352 19.4177 94.9047 19.6568C95.3786 19.8959 95.7439 20.2264 96.0134 20.6568C96.2786 21.0829 96.4134 21.5829 96.4134 22.1481C96.4134 22.7699 96.2525 23.3046 95.9265 23.7525C95.6004 24.2046 95.1612 24.5307 94.6047 24.7394L96.6699 28.7481H94.9265L93.0482 24.9699H91.6569V28.7481H90.0352L90.0395 28.7525ZM91.6612 23.6786H93.1178C93.6221 23.6786 94.0221 23.5394 94.3265 23.2655C94.6265 22.9916 94.7786 22.6307 94.7786 22.1786C94.7786 21.7264 94.6265 21.3525 94.3265 21.0786C94.0265 20.8046 93.6221 20.6655 93.1178 20.6655H91.6612V23.6742V23.6786Z" fill="#151522"/>
<path d="M99.3393 28.7525V19.3003H100.961V23.5264L104.348 19.3003H106.196L102.387 23.8786L106.37 28.7525H104.331L100.957 24.4307V28.7525H99.335H99.3393Z" fill="#151522"/>
<defs>
<linearGradient id="paint0_linear_97_9383" x1="-0.286957" y1="16.2957" x2="32.287" y2="15.7" gradientUnits="userSpaceOnUse">
<stop stop-color="#29CCB9"/>
<stop offset="0.49" stop-color="#0091FF"/>
<stop offset="1" stop-color="#FF66B7"/>
</linearGradient>
</defs>
</svg>
